<svg width="44" height="40" viewBox="0 0 44 40" fill="none" xmlns="http://www.w3.org/2000/svg">
<g clip-path="url(#clip0_106_2)">
<path d="M16.9785 0.0468749L13.742 4.03906C12.773 4.36719 11.8736 4.96875 11.1136 5.79688L9.42881 7.64844C8.78277 8.35938 7.9404 8.75 7.07269 8.75H5.81863V18.75C7.11069 18.7969 8.33942 19.4453 9.2578 20.5781L11.5126 23.3594L11.9559 23.9062L13.666 26.0156C14.0587 26.5 14.7047 26.5 15.0974 26.0156C15.2051 25.8828 15.2874 25.7266 15.3318 25.5625C15.5091 24.9609 15.9208 24.5078 16.4275 24.3672C16.9342 24.2266 17.4662 24.4141 17.8335 24.875L18.5176 25.7031C19.2523 26.6094 20.443 26.6094 21.1714 25.7031C21.5134 25.2812 21.6971 24.7422 21.7161 24.1875C21.7414 23.5 22.0707 22.8906 22.5774 22.5938C23.0841 22.2969 23.6732 22.3594 24.1228 22.7578C24.7182 23.2812 25.5479 23.2109 26.0799 22.5547C26.6753 21.8203 26.6753 20.6328 26.0799 19.9062L21.279 13.9844L19.0116 16.5625C17.2825 18.5312 14.6287 18.5625 12.868 16.6328C10.8602 14.4297 10.8159 10.5859 12.7666 8.3125L17.2065 3.14062C18.9419 1.125 21.2347 0 23.6225 0C25.9089 0 28.1194 1.03906 29.8231 2.90625L31.7295 5H39.2602C39.8176 5 40.2736 5.5625 40.2736 6.25V22.5C40.2736 23.8828 39.3679 25 38.2468 25H36.2201C35.4727 25 34.814 24.5 34.4657 23.75H29.0884C28.8731 24.2734 28.5881 24.7734 28.2334 25.2109C27.1503 26.5469 25.6492 27.0703 24.2432 26.7812C24.0152 27.3516 23.7048 27.8828 23.3185 28.3594C21.5894 30.4922 18.8849 30.7031 16.9595 28.9922C15.3698 30.6172 13.001 30.5156 11.5126 28.6719L9.80882 26.5625L9.36547 26.0156L7.11069 23.2344C6.76234 22.8047 6.30632 22.5547 5.81863 22.5078C5.81863 23.8828 4.90659 25 3.79187 25H1.76511C0.644052 25 -0.261658 23.8828 -0.261658 22.5V6.25C-0.261658 5.5625 0.194364 5 0.751724 5H7.07269C7.19937 5 7.3197 4.94531 7.40838 4.84375L9.08679 3C10.8539 1.07031 13.1276 0 15.4901 0H16.1425C16.4211 0 16.7062 0.0156249 16.9785 0.0468749ZM34.1933 20V8.75H31.1532C30.7795 8.75 30.4185 8.57812 30.1461 8.27344L27.809 5.71094C26.6563 4.44531 25.1679 3.75 23.6225 3.75C22.0137 3.75 20.4683 4.50781 19.2966 5.86719L14.8567 11.0391C14.2044 11.8047 14.217 13.0938 14.8884 13.8281C15.4774 14.4766 16.3705 14.4609 16.9468 13.8047L21.5007 8.61719C22.1151 7.91406 23.0778 7.96094 23.6478 8.72656C24.2178 9.49219 24.1798 10.6719 23.5591 11.375L23.5085 11.4375L28.2207 17.25C28.8541 18.0312 29.2658 18.9922 29.4494 19.9922H34.1933V20ZM3.79187 21.25C3.79187 20.9185 3.6851 20.6005 3.49506 20.3661C3.30501 20.1317 3.04725 20 2.77849 20C2.50972 20 2.25196 20.1317 2.06192 20.3661C1.87187 20.6005 1.76511 20.9185 1.76511 21.25C1.76511 21.5815 1.87187 21.8995 2.06192 22.1339C2.25196 22.3683 2.50972 22.5 2.77849 22.5C3.04725 22.5 3.30501 22.3683 3.49506 22.1339C3.6851 21.8995 3.79187 21.5815 3.79187 21.25ZM37.2335 22.5C37.5022 22.5 37.76 22.3683 37.95 22.1339C38.1401 21.8995 38.2468 21.5815 38.2468 21.25C38.2468 20.9185 38.1401 20.6005 37.95 20.3661C37.76 20.1317 37.5022 20 37.2335 20C36.9647 20 36.7069 20.1317 36.5169 20.3661C36.3269 20.6005 36.2201 20.9185 36.2201 21.25C36.2201 21.5815 36.3269 21.8995 36.5169 22.1339C36.7069 22.3683 36.9647 22.5 37.2335 22.5Z" fill="black"/>
</g>
<defs>
<clipPath id="clip0_106_2">
<rect width="43.4859" height="40" fill="white" transform="translate(-0.0012207)"/>
</clipPath>
</defs>
</svg>
