<svg width="45" height="40" viewBox="0 0 45 40" fill="none" xmlns="http://www.w3.org/2000/svg">
<g clip-path="url(#clip0_106_24)">
<path d="M25.1244 5L17.4261 9.87609L18.2064 10.2977L25.0555 5.95945L36.6726 12.4529L30.0092 16.6734L30.3338 16.8488V17.3837L35.5529 14.0778L36.6483 14.6902L30.3337 18.6898V19.6056L35.4507 16.3645L36.6483 17.034L30.3337 21.0336V21.9495L35.4507 18.7083L36.6483 19.3778L30.3337 23.3774V24.2933L38.2534 19.2769L36.2877 18.1783L38.2533 16.9332L36.2876 15.8345L38.2532 14.5894L36.3898 13.5477L38.2773 12.352L25.1244 5H25.1244ZM27.584 8.49531C25.9184 9.32 23.6999 9.45953 22.1379 8.83773L19.0843 10.7719L29.1313 16.1992L32.0275 14.3648C30.8866 13.4761 30.9816 12.15 32.2604 11.1094L27.5839 8.49531H27.584ZM17.2452 11.3816L11.6488 14.9827L22.3851 21.0816L22.4904 21.0152C22.6883 20.8894 22.9678 20.7112 23.3012 20.4985C23.9678 20.0733 24.85 19.5095 25.7297 18.947C26.9966 18.1368 27.6494 17.7188 28.2565 17.3302L17.2452 11.3816ZM26.3867 11.473C26.3868 11.473 26.3869 11.473 26.387 11.473C26.6402 11.4745 26.8723 11.528 27.0457 11.6249C27.1466 11.6813 27.2248 11.7508 27.276 11.8296C27.3271 11.9083 27.3501 11.9947 27.3437 12.0838C27.3373 12.1729 27.3016 12.263 27.2387 12.3489C27.1757 12.4348 27.0867 12.5148 26.9768 12.5845C26.8669 12.6541 26.7382 12.7119 26.598 12.7546C26.4579 12.7974 26.309 12.8242 26.16 12.8336C26.011 12.8429 25.8646 12.8346 25.7294 12.8092C25.5941 12.7837 25.4726 12.7416 25.3718 12.6852C25.1681 12.5714 25.0609 12.4063 25.0738 12.2264C25.0867 12.0465 25.2187 11.8664 25.4406 11.7259C25.5667 11.646 25.7172 11.5818 25.8811 11.538C26.0449 11.4942 26.2177 11.472 26.3867 11.473ZM9.09408 15.1538L0.749123 20.4394L2.61256 21.481L0.724976 22.6767L2.69062 23.7754L0.724976 25.0205L2.69062 26.1192L0.724976 27.3644L13.878 34.7164L21.8191 29.6862V28.7706L13.9469 33.7569L2.32992 27.2634L3.45849 26.5485L13.878 32.3725L21.8191 27.3425V26.4269L13.9469 31.4131L2.32992 24.9196L3.45849 24.2048L13.878 30.0287L21.8191 24.9987V24.0831L13.9469 29.0694L2.32992 22.5759L3.38051 21.9102L13.9023 27.7915L21.8191 22.7768V22.3823L21.3852 22.1359L13.9709 26.832L2.35422 20.3385L9.85642 15.5866L9.094 15.1536L9.09408 15.1538ZM10.7139 16.0741L6.99923 18.4269C8.14008 19.3155 8.04508 20.6416 6.76631 21.6823L11.4428 24.2964C13.1083 23.4716 15.3266 23.3322 16.8887 23.9539L20.5277 21.6489L10.7138 16.0741L10.7139 16.0741ZM28.9086 18.589C28.2718 18.9966 27.7101 19.3563 26.5048 20.1271C25.6951 20.645 24.8852 21.1626 24.075 21.6797C23.7412 21.8926 23.4611 22.0711 23.2613 22.1978C23.2542 22.2025 23.2513 22.2041 23.2443 22.2085V28.9213L28.9087 25.1645L28.9086 18.589ZM12.9962 19.9546C13.2494 19.9562 13.4815 20.0098 13.6549 20.1067C13.8585 20.2206 13.9657 20.3856 13.9528 20.5655C13.9399 20.7455 13.8079 20.9255 13.586 21.0661C13.364 21.2066 13.0703 21.2962 12.7693 21.3151C12.4684 21.334 12.1849 21.2807 11.9812 21.1669C11.7775 21.053 11.6703 20.888 11.6832 20.7081C11.6962 20.5281 11.8281 20.3481 12.0501 20.2075C12.1761 20.1277 12.3267 20.0634 12.4905 20.0197C12.6543 19.9759 12.8272 19.9537 12.9962 19.9547V19.9546Z" fill="black"/>
</g>
<defs>
<clipPath id="clip0_106_24">
<rect width="43.4859" height="40" fill="white" transform="translate(0.911621)"/>
</clipPath>
</defs>
</svg>
