<svg width="45" height="40" viewBox="0 0 45 40" fill="none" xmlns="http://www.w3.org/2000/svg">
<path d="M15.0545 3C13.2202 3.0018 11.4417 4.01328 10.7309 5.83774L4.10669 31.3195C3.10336 38.7052 10.5227 38.2525 15.0288 36.4286C21.475 33.8195 29.4159 34.1463 35.8699 35.7833L36.3806 34.4381C35.7963 34.232 35.1666 33.9703 34.6189 33.8101C34.6563 33.4691 34.6945 33.1288 34.7327 32.7887L36.5566 33.1104L36.8126 31.6963C36.1734 31.5838 35.5343 31.4709 34.895 31.3582C34.9437 30.9365 34.993 30.5149 35.0431 30.0934L36.7954 30.3495L37.0087 28.9288C36.4111 28.8413 35.8133 28.7539 35.2157 28.6666C35.2518 28.3725 35.2877 28.0784 35.3245 27.7846C35.9274 27.8699 36.5304 27.9552 37.1334 28.0403L37.3397 26.6184L35.5058 26.3594C35.5423 26.0787 35.608 25.5791 35.6452 25.2987L37.4488 25.4979L37.6107 24.1252C37.0195 24.06 36.4283 23.9947 35.8371 23.9293C35.8991 23.4788 35.9889 23.0557 36.0531 22.6056C36.6603 22.6931 37.2676 22.7809 37.8749 22.8688L38.0578 21.5298C37.4496 21.4417 36.8413 21.354 36.2329 21.2662C36.2956 20.8431 36.3321 20.4748 36.3969 20.052C36.957 20.1507 37.5171 20.2495 38.0771 20.348L38.333 18.934L36.6187 18.632C36.6769 18.2666 36.7353 17.9015 36.7952 17.5362C37.3477 17.6669 37.9 17.7977 38.4524 17.9285L38.7922 16.5318C38.2063 16.3929 37.6202 16.2541 37.0343 16.1154C37.0898 15.7903 37.1461 15.4654 37.2031 15.1406C37.7557 15.2643 38.3084 15.3879 38.8611 15.5114L39.1828 14.1106C38.6072 13.9817 38.0315 13.853 37.4557 13.7242C37.5166 13.3909 37.5784 13.0574 37.6411 12.7238L39.2833 13.1263L39.6341 11.7323L37.9121 11.31C37.9707 11.0095 38.0303 10.7088 38.0905 10.4078L39.6961 10.7995L40.0455 9.40508L38.3784 8.99828C38.4454 8.67587 38.5132 8.35363 38.5819 8.03156C39.2459 8.21985 39.6214 8.21625 40.277 8.42141L40.4329 7.19242C33.7978 5.10055 26.2416 4.59711 21.1001 6.68828C19.1734 15.5973 18.1467 23.9852 15.714 33.1445C15.4443 34.1602 14.5684 34.8547 13.5493 35.337C11.4117 36.2439 8.47983 36.4134 6.84915 34.9534C5.98057 34.1456 5.56865 32.8413 5.86213 31.2363C6.04446 30.2393 6.72375 29.5187 7.51157 29.1755C9.07511 28.6229 10.9549 28.8435 12.1742 29.7966C13.1609 30.5234 13.1494 32.7875 11.8668 32.2826C11.1037 31.8005 11.7113 31.3567 11.1848 30.9249C10.2664 30.3446 9.09308 30.0755 8.09933 30.4898C7.65883 30.6816 7.39574 30.938 7.29449 31.4915C7.06172 32.7641 7.34872 33.4443 7.84749 33.9081C9.29892 34.962 11.4322 34.728 12.9198 34.0419C13.715 33.6653 14.2084 33.1484 14.3061 32.7804C16.7238 23.6774 17.7455 15.2708 19.7129 6.22071C18.779 4.00633 16.8889 2.99828 15.0545 3Z" fill="black"/>
</svg>
