<svg width="31" height="40" viewBox="0 0 31 40" fill="none" xmlns="http://www.w3.org/2000/svg">
<g clip-path="url(#clip0_104_84)">
<path d="M0.440902 1.95312V38.0469H25.9338V1.95312H0.440902ZM15.7208 3.35938H22.0544V4.76562H15.7208V3.35938ZM1.94514 6.48438H24.4296V13.0469H1.94514V6.48438ZM3.68689 10.0781V11.4844H10.6539V10.0781H3.68689ZM1.94514 14.2969H6.53703V18.8281H1.94514V14.2969ZM7.9621 14.2969H12.554V18.8281H7.9621V14.2969ZM13.8207 14.2969H18.4126V18.8281H13.8207V14.2969ZM19.8377 14.2969H24.4296V18.8281H19.8377V14.2969ZM3.37021 15.7031V17.4219H5.11196V15.7031H3.37021ZM9.38716 15.7031V17.4219H11.1289V15.7031H9.38716ZM15.2458 15.7031V17.4219H16.9875V15.7031H15.2458ZM21.2627 15.7031V17.4219H23.0045V15.7031H21.2627ZM1.94514 20.0781H6.53703V24.6094H1.94514V20.0781ZM7.9621 20.0781H12.554V24.6094H7.9621V20.0781ZM13.8207 20.0781H18.4126V24.6094H13.8207V20.0781ZM19.8377 20.0781H24.4296V24.6094H19.8377V20.0781ZM3.37021 21.4844V23.2031H5.11196V21.4844H3.37021ZM9.38716 21.4844V23.2031H11.1289V21.4844H9.38716ZM15.2458 21.4844V23.2031H16.9875V21.4844H15.2458ZM21.2627 21.4844V23.2031H23.0045V21.4844H21.2627ZM1.94514 25.8594H6.53703V30.3906H1.94514V25.8594ZM7.9621 25.8594H12.554V30.3906H7.9621V25.8594ZM13.8207 25.8594H18.4126V30.3906H13.8207V25.8594ZM19.8377 25.8594H24.4296V36.1719H19.8377V25.8594ZM3.37021 27.2656V28.9844H5.11196V27.2656H3.37021ZM9.38716 27.2656V28.9844H11.1289V27.2656H9.38716ZM15.2458 27.2656V28.9844H16.9875V27.2656H15.2458ZM21.2627 27.2656V34.7656H23.0045V27.2656H21.2627ZM1.94514 31.6406H6.53703V36.1719H1.94514V31.6406ZM7.9621 31.6406H12.554V36.1719H7.9621V31.6406ZM13.8207 31.6406H18.4126V36.1719H13.8207V31.6406ZM3.37021 33.0469V34.7656H5.11196V33.0469H3.37021ZM9.38716 33.0469V34.7656H11.1289V33.0469H9.38716ZM15.2458 33.0469V34.7656H16.9875V33.0469H15.2458Z" fill="black"/>
</g>
<defs>
<clipPath id="clip0_104_84">
<rect width="30.4015" height="40" fill="white" transform="translate(0.013382)"/>
</clipPath>
</defs>
</svg>
