<svg width="52" height="36" viewBox="0 0 52 36" fill="none" xmlns="http://www.w3.org/2000/svg">
<path d="M42.3135 0C40.5406 1.70577 38.4316 3.01887 36.1227 3.85457C33.688 4.28649 26.9504 1.14525 23.6304 4.35194C23.0771 4.9082 22.3936 5.46446 21.6775 6.02072C20.1152 5.33358 17.7066 4.28649 15.9489 3.27213C14.1913 2.25777 9.76465 0 9.76465 0L0 11.4525C0 11.4525 2.40861 14.7246 3.90586 16.8842C4.88232 18.3239 6.08663 20.5163 6.8678 21.9887L5.76114 23.2976C5.49612 23.8268 5.40077 24.4256 5.4882 25.0116C5.57564 25.5976 5.84156 26.1419 6.24937 26.5697C6.7201 26.9245 7.29284 27.1157 7.88116 27.1145C8.46948 27.1134 9.04145 26.9198 9.51077 26.5632C9.33675 26.768 9.20505 27.0056 9.12335 27.2622C9.04165 27.5187 9.01159 27.789 9.03492 28.0574C9.05825 28.3257 9.1345 28.5867 9.25923 28.8251C9.38396 29.0635 9.55467 29.2745 9.76139 29.4459C10.2584 29.7377 10.8239 29.891 11.3995 29.8898C11.9751 29.8887 12.5399 29.7332 13.0358 29.4394C12.6639 29.9054 12.4604 30.4845 12.4587 31.0819C12.4569 31.6793 12.6569 32.2597 13.026 32.7279C13.5058 32.8949 14.0176 32.9481 14.5212 32.8834C15.0248 32.8187 15.5068 32.6378 15.9294 32.3548C15.7189 32.8558 15.6643 33.4092 15.773 33.9419C15.8816 34.4747 16.1484 34.9618 16.5381 35.339C17.0885 35.5849 17.692 35.6863 18.292 35.6336C18.8921 35.581 19.469 35.376 19.9687 35.038L21.6482 33.5099C23.1845 35.0478 25.3035 36 27.6437 36L27.8423 35.9967C28.6135 35.9305 29.3523 35.6547 29.9796 35.1988C30.6068 34.7429 31.0989 34.124 31.4031 33.4085C31.8783 33.5917 32.4186 33.7161 32.9915 33.7161C33.7596 33.7161 34.4725 33.4935 35.0746 33.1107C36.9787 31.8444 36.523 30.8628 36.523 30.8628C37.2001 31.1557 37.9522 31.2252 38.671 31.0612C39.3899 30.8971 40.0384 30.508 40.5233 29.9498C41.0271 29.4317 41.3449 28.7595 41.4262 28.0395C41.5075 27.3195 41.3479 26.5928 40.9725 25.9742C40.993 25.9865 41.0169 25.9923 41.0408 25.9905C42.4111 25.9905 43.6024 25.2314 44.2241 24.1123C44.53 23.317 44.6334 22.4574 44.5248 21.6116C44.4163 20.7659 44.0992 19.9608 43.6024 19.2696L43.6122 19.2859C46.2812 18.7624 46.1835 17.4208 47.4855 15.4576C48.7182 13.8554 50.2521 12.5124 52 11.5048L42.3135 0ZM42.1507 23.1013C40.7186 24.541 39.6119 23.9193 37.1708 22.0542C34.7296 20.1891 29.8798 16.6879 29.8798 16.6879C30.0784 17.6859 30.5373 18.553 31.185 19.2434C32.2233 20.4181 35.3155 23.1013 36.7802 24.4755C37.6915 25.3263 40.0351 27.0278 38.668 28.3367C37.301 29.6455 36.2268 28.3367 33.981 26.5043C31.7351 24.6719 26.7226 20.1563 26.7226 20.1563C26.695 20.5892 26.759 21.023 26.9105 21.4291C27.062 21.8352 27.2975 22.2044 27.6014 22.5123C28.1547 23.1667 31.2469 26.1771 32.5488 27.5514C33.8508 28.9257 34.99 29.7437 33.8833 30.8235C32.7767 31.9033 30.5308 30.2018 29.2939 28.9257C27.3736 27.0605 23.5653 23.5921 23.5653 23.5921L23.5621 23.7655C23.5621 24.6948 23.8811 25.5455 24.4181 26.2196C25.3555 27.4565 27.1783 29.0598 28.2849 30.3032C29.3916 31.5466 30.0426 32.5937 28.2849 33.5753C26.5273 34.557 23.9234 32.1356 22.7842 30.9576V30.9511C22.7844 30.6279 22.6689 30.3154 22.4587 30.0709C22.0694 29.7083 21.589 29.4594 21.0693 29.351C20.5497 29.2426 20.0105 29.2788 19.5098 29.4557C19.7158 29.2703 19.8809 29.0436 19.9946 28.7902C20.1082 28.5368 20.1679 28.2623 20.1697 27.9844C20.1716 27.7064 20.1155 27.4311 20.0052 27.1762C19.895 26.9213 19.7328 26.6924 19.5293 26.5043C19.102 26.1788 18.5806 26.003 18.0445 26.0036C17.5085 26.0042 16.9874 26.1812 16.5608 26.5075C16.7765 26.3004 16.943 26.0471 17.048 25.7665C17.1529 25.4858 17.1936 25.185 17.167 24.8863C17.1404 24.5877 17.0473 24.2989 16.8944 24.0414C16.7416 23.7839 16.533 23.5643 16.2842 23.399C15.7015 23.031 15.0178 22.858 14.3312 22.9051C13.6446 22.9521 12.9906 23.2167 12.4629 23.6608C12.8156 23.2311 12.9894 22.6811 12.9482 22.1256C12.9069 21.5701 12.6538 21.0521 12.2416 20.6799C11.7293 20.2005 11.0765 19.9007 10.3807 19.8252C9.68494 19.7497 8.98353 19.9026 8.38132 20.261L6.21683 16.5864C4.71958 14.1978 2.96194 11.711 2.96194 11.711L10.3831 2.64716C10.3831 2.64716 13.0195 4.28322 15.2003 5.52663C16.2744 6.14834 18.1297 6.96637 19.5293 7.6208C17.316 9.28958 15.4607 10.8929 16.014 12.0055C17.0001 12.7171 18.1785 13.1096 19.3922 13.1306C20.6059 13.1517 21.7971 12.8002 22.807 12.1233C24.1019 11.2579 25.6234 10.7989 27.1783 10.8046C28.3077 10.8046 29.3818 11.0402 30.355 11.4688C32.1582 12.6926 35.4782 15.703 38.5053 17.6008C42.3135 20.3821 43.0621 22.1818 42.1507 23.098V23.1013Z" fill="black"/>
</svg>
