<svg width="44" height="40" viewBox="0 0 44 40" fill="none" xmlns="http://www.w3.org/2000/svg">
<path d="M32.6117 31.1667C34.0135 31.1667 35.1451 30.05 35.1451 28.6667C35.1451 27.2833 34.0135 26.1667 32.6117 26.1667C31.2098 26.1667 30.0782 27.2833 30.0782 28.6667C30.0782 30.05 31.2098 31.1667 32.6117 31.1667ZM35.1451 16.1667H30.9227V20.3333H38.4555L35.1451 16.1667ZM12.344 31.1667C13.7459 31.1667 14.8775 30.05 14.8775 28.6667C14.8775 27.2833 13.7459 26.1667 12.344 26.1667C10.9422 26.1667 9.81056 27.2833 9.81056 28.6667C9.81056 30.05 10.9422 31.1667 12.344 31.1667ZM35.9896 13.6667L41.0565 20.3333V28.6667H37.6786C37.6786 31.4333 35.4153 33.6667 32.6117 33.6667C29.808 33.6667 27.5447 31.4333 27.5447 28.6667H17.4109C17.4109 31.4333 15.1477 33.6667 12.344 33.6667C9.54033 33.6667 7.27711 31.4333 7.27711 28.6667H3.89917V10.3333C3.89917 8.48333 5.40235 7 7.27711 7H30.9227V13.6667H35.9896ZM7.27711 10.3333V25.3333H8.56073C9.48966 24.3167 10.8408 23.6667 12.344 23.6667C13.8472 23.6667 15.1984 24.3167 16.1273 25.3333H27.5447V10.3333H7.27711ZM19.0999 12L25.0113 17.8333L19.0999 23.6667V19.5H10.655V16.1667H19.0999V12Z" fill="black"/>
</svg>
