<svg width="44" height="40" viewBox="0 0 44 40" fill="none" xmlns="http://www.w3.org/2000/svg">
<path d="M36.9788 11.3333V8C36.9788 5.25 34.6987 3 31.9119 3H25.156C23.8555 3 22.6732 3.5 21.778 4.3C20.8829 3.5 19.7006 3 18.4001 3H11.6442C8.85743 3 6.57732 5.25 6.57732 8V11.3333C3.79052 11.3333 1.51041 13.5833 1.51041 16.3333V24.6667C1.51041 27.4167 3.79052 29.6667 6.57732 29.6667V33H9.95526V29.6667H33.6008V33H36.9788V29.6667C39.7656 29.6667 42.0457 27.4167 42.0457 24.6667V16.3333C42.0457 13.5833 39.7656 11.3333 36.9788 11.3333ZM25.156 6.33333H31.9119C32.8408 6.33333 33.6008 7.08333 33.6008 8V12.6333C32.5706 13.55 31.9119 14.8667 31.9119 16.3333V19.6667H23.467V8C23.467 7.08333 24.227 6.33333 25.156 6.33333ZM9.95526 8C9.95526 7.08333 10.7153 6.33333 11.6442 6.33333H18.4001C19.329 6.33333 20.0891 7.08333 20.0891 8V19.6667H11.6442V16.3333C11.6442 14.8667 10.9855 13.55 9.95526 12.6333V8ZM38.6677 24.6667C38.6677 25.5833 37.9077 26.3333 36.9788 26.3333H6.57732C5.64838 26.3333 4.88835 25.5833 4.88835 24.6667V16.3333C4.88835 15.4167 5.64838 14.6667 6.57732 14.6667C7.50625 14.6667 8.26629 15.4167 8.26629 16.3333V23H35.2898V16.3333C35.2898 15.4167 36.0498 14.6667 36.9788 14.6667C37.9077 14.6667 38.6677 15.4167 38.6677 16.3333V24.6667Z" fill="#111111"/>
</svg>
