<svg width="21" height="20" viewBox="0 0 21 20" fill="none" xmlns="http://www.w3.org/2000/svg">
<path d="M18.44 11C18.22 11 17.99 10.93 17.77 10.88C17.3245 10.7818 16.8867 10.6515 16.46 10.49C15.9961 10.3212 15.4861 10.33 15.0283 10.5146C14.5705 10.6992 14.1971 11.0466 13.98 11.49L13.76 11.94C12.786 11.3982 11.891 10.7252 11.1 9.93999C10.3148 9.14901 9.64182 8.25399 9.1 7.27999L9.52 6.99999C9.96337 6.78291 10.3108 6.40952 10.4954 5.95168C10.68 5.49384 10.6888 4.9839 10.52 4.51999C10.3612 4.09241 10.2309 3.65479 10.13 3.20999C10.08 2.98999 10.04 2.75999 10.01 2.52999C9.88857 1.82561 9.51962 1.18773 8.96962 0.731229C8.41962 0.274727 7.7247 0.029599 7.01 0.0399902H4.01C3.57903 0.0359436 3.15225 0.124804 2.75871 0.300521C2.36517 0.476238 2.01411 0.734686 1.72943 1.05827C1.44475 1.38186 1.23313 1.76298 1.10899 2.1757C0.984841 2.58842 0.951079 3.02305 1.01 3.44999C1.54274 7.63937 3.45603 11.5319 6.44765 14.5126C9.43928 17.4934 13.3387 19.3925 17.53 19.91H17.91C18.6474 19.9111 19.3594 19.6405 19.91 19.15C20.2264 18.867 20.4791 18.5202 20.6515 18.1323C20.8238 17.7444 20.912 17.3244 20.91 16.9V13.9C20.8978 13.2054 20.6448 12.5365 20.1943 12.0077C19.7439 11.4788 19.1238 11.1226 18.44 11ZM18.94 17C18.9398 17.142 18.9094 17.2823 18.8508 17.4116C18.7922 17.5409 18.7067 17.6563 18.6 17.75C18.4886 17.847 18.358 17.9194 18.2167 17.9625C18.0754 18.0056 17.9266 18.0183 17.78 18C14.0349 17.5198 10.5562 15.8065 7.89272 13.1303C5.2292 10.4541 3.53241 6.96733 3.07 3.21999C3.05408 3.07351 3.06803 2.92532 3.111 2.78438C3.15397 2.64344 3.22507 2.51268 3.32 2.39999C3.41371 2.29332 3.52906 2.20783 3.65838 2.14921C3.7877 2.09058 3.92801 2.06017 4.07 2.05999H7.07C7.30255 2.05482 7.52962 2.13087 7.71214 2.27506C7.89466 2.41925 8.02121 2.62256 8.07 2.84999C8.11 3.12332 8.16 3.39332 8.22 3.65999C8.33552 4.18713 8.48926 4.70517 8.68 5.20999L7.28 5.85999C7.1603 5.91491 7.05262 5.99294 6.96316 6.08959C6.87369 6.18623 6.8042 6.2996 6.75867 6.42318C6.71314 6.54677 6.69247 6.67812 6.69785 6.80971C6.70322 6.9413 6.73454 7.07054 6.79 7.18999C8.2292 10.2727 10.7072 12.7508 13.79 14.19C14.0335 14.29 14.3065 14.29 14.55 14.19C14.6747 14.1454 14.7893 14.0764 14.8872 13.9872C14.985 13.8979 15.0642 13.7901 15.12 13.67L15.74 12.27C16.257 12.4549 16.7846 12.6085 17.32 12.73C17.5867 12.79 17.8567 12.84 18.13 12.88C18.3574 12.9288 18.5607 13.0553 18.7049 13.2378C18.8491 13.4204 18.9252 13.6474 18.92 13.88L18.94 17Z" fill="white"/>
</svg>
