<svg width="45" height="40" viewBox="0 0 45 40" fill="none" xmlns="http://www.w3.org/2000/svg">
<path fill-rule="evenodd" clip-rule="evenodd" d="M30.6158 4.4978C29.3934 4.49741 28.1912 4.80507 27.1231 5.3916C26.055 5.97814 25.1563 6.82413 24.5123 7.84938C23.8683 8.87464 23.5003 10.0452 23.4432 11.2501C23.3861 12.455 23.6417 13.6544 24.1859 14.7345C24.4561 15.2678 24.5659 15.9178 24.3886 16.5711L23.9613 18.1478L25.559 17.7261C26.1834 17.5668 26.8453 17.6379 27.4203 17.9261C28.3893 18.4007 29.4544 18.6529 30.5361 18.6641C31.6179 18.6752 32.6881 18.445 33.667 17.9905C34.6458 17.5361 35.5079 16.8692 36.1888 16.0397C36.8698 15.2103 37.3519 14.2397 37.5992 13.2004C37.8465 12.1612 37.8526 11.0803 37.617 10.0384C37.3814 8.99659 36.9102 8.02075 36.2386 7.18387C35.5671 6.34699 34.7125 5.67071 33.7389 5.20558C32.7652 4.74045 31.6976 4.49849 30.6158 4.4978ZM20.9042 11.5811C20.9047 9.49711 21.5936 7.47003 22.8665 5.80711C24.1395 4.14418 25.927 2.93604 27.9584 2.36577C29.9897 1.7955 32.154 1.89419 34.1234 2.64688C36.0927 3.39958 37.7598 4.76524 38.8719 6.53692C39.9839 8.30861 40.4805 10.3897 40.2862 12.4649C40.0919 14.5401 39.2174 16.4963 37.7952 18.0369C36.373 19.5775 34.4807 20.6187 32.4049 21.0026C30.3291 21.3866 28.1831 21.0923 26.292 20.1645C26.2709 20.1536 26.2481 20.1462 26.2245 20.1428H26.2127L24.3345 20.6378C23.9337 20.7439 23.5116 20.7439 23.1107 20.638C22.7098 20.5321 22.3442 20.324 22.0507 20.0345C21.7571 19.745 21.546 19.3843 21.4384 18.9888C21.3309 18.5933 21.3307 18.1768 21.4379 17.7811L21.9413 15.9261V15.9145C21.9372 15.8911 21.9292 15.8685 21.9176 15.8478C21.2492 14.5223 20.9023 13.0616 20.9042 11.5811ZM8.18291 6.73447C10.2536 4.58447 13.6788 4.98613 15.3914 7.37613L17.5195 10.3478C18.8893 12.2595 18.7744 14.9145 17.1395 16.6145L16.7257 17.0428C16.7257 17.0461 16.7257 17.0495 16.7223 17.0528C16.7004 17.1145 16.6463 17.3061 16.7004 17.6728C16.8135 18.4328 17.4064 19.9745 19.8182 22.4795C22.2368 24.9928 23.7028 25.5861 24.3835 25.6945C24.5475 25.7307 24.718 25.7267 24.8801 25.6828L25.5692 24.9661C27.0453 23.4328 29.3457 23.1311 31.2019 24.1845L34.4278 26.0178C37.1859 27.5845 37.8277 31.4161 35.6236 33.7061L33.2253 36.1978C32.477 36.9761 31.4552 37.6411 30.1936 37.7645C27.1129 38.0645 19.977 37.6728 12.4965 29.9011C5.51433 22.6478 4.18849 16.3395 4.02128 13.2578C3.93852 11.7345 4.62594 10.4295 5.53122 9.48947L8.18291 6.73447ZM13.3224 8.8178C12.4577 7.61113 10.9021 7.53947 10.0188 8.45613L7.36713 11.2111C6.80977 11.7928 6.5142 12.4578 6.55136 13.1245C6.68648 15.6411 7.786 21.3778 14.3324 28.1795C21.1964 35.3111 27.5216 35.5128 29.9453 35.2761C30.4233 35.2295 30.9164 34.9661 31.3877 34.4761L33.786 31.9845C34.823 30.9095 34.5511 28.9711 33.1645 28.1845L29.9385 26.3511C29.0721 25.8595 28.057 26.0111 27.4068 26.6878L26.6383 27.4878L25.7195 26.6261C26.6366 27.4878 26.6366 27.4878 26.6349 27.4895L26.6332 27.4928L26.6281 27.4978L26.6163 27.5078L26.5927 27.5311C26.5218 27.5999 26.4449 27.6623 26.363 27.7178C26.2279 27.8128 26.0488 27.9178 25.8208 28.0045C25.3547 28.1878 24.7399 28.2845 23.9781 28.1628C22.4952 27.9245 20.5529 26.8745 17.9823 24.2011C15.4016 21.5211 14.4135 19.5228 14.1939 18.0345C14.0808 17.2778 14.1703 16.6728 14.3358 16.2145C14.4277 15.9591 14.5587 15.7191 14.7243 15.5028L14.775 15.4411L14.7986 15.4161L14.8087 15.4061L14.8138 15.4011L14.8172 15.3978C14.8172 15.3978 14.8189 15.3961 15.7377 16.2561L14.8189 15.3961L15.3036 14.8928C16.0552 14.1095 16.165 12.7861 15.4522 11.7928L13.3224 8.8178Z" fill="black"/>
</svg>
