<svg width="44" height="40" viewBox="0 0 44 40" fill="none" xmlns="http://www.w3.org/2000/svg">
<path d="M21.707 19.735C20.1392 19.735 18.6357 20.3496 17.5271 21.4435C16.4185 22.5375 15.7957 24.0212 15.7957 25.5683C15.7957 27.1154 16.4185 28.5991 17.5271 29.6931C18.6357 30.7871 20.1392 31.4017 21.707 31.4017C23.2748 31.4017 24.7784 30.7871 25.887 29.6931C26.9956 28.5991 27.6184 27.1154 27.6184 25.5683C27.6184 24.0212 26.9956 22.5375 25.887 21.4435C24.7784 20.3496 23.2748 19.735 21.707 19.735ZM19.1736 25.5683C19.1736 24.9053 19.4405 24.2694 19.9156 23.8006C20.3907 23.3317 21.0351 23.0683 21.707 23.0683C22.379 23.0683 23.0234 23.3317 23.4985 23.8006C23.9736 24.2694 24.2405 24.9053 24.2405 25.5683C24.2405 26.2314 23.9736 26.8672 23.4985 27.3361C23.0234 27.8049 22.379 28.0683 21.707 28.0683C21.0351 28.0683 20.3907 27.8049 19.9156 27.3361C19.4405 26.8672 19.1736 26.2314 19.1736 25.5683Z" fill="black"/>
<path d="M31.0403 7.42833L25.6711 0L5.92873 15.5633L4.83427 15.5517V15.5683H3.9729V35.5683H39.4413V15.5683H37.8165L34.5838 6.23667L31.0403 7.42833ZM34.2477 15.5683H17.3107L29.9256 11.325L32.4962 10.5133L34.2477 15.5683ZM27.7029 8.55167L14.681 12.9317L24.9938 4.80167L27.7029 8.55167ZM7.35084 29.1833V21.95C8.06341 21.7008 8.71064 21.2979 9.24535 20.7705C9.78006 20.2432 10.1888 19.6047 10.4417 18.9017H32.9725C33.2253 19.6049 33.6339 20.2437 34.1686 20.7713C34.7034 21.299 35.3506 21.7022 36.0633 21.9517V29.185C35.3506 29.4344 34.7034 29.8377 34.1686 30.3653C33.6339 30.893 33.2253 31.5317 32.9725 32.235H10.445C10.192 31.5311 9.7829 30.8919 9.24759 30.3639C8.71228 29.836 8.06426 29.4326 7.35084 29.1833Z" fill="black"/>
</svg>
