<svg width="14" height="11" viewBox="0 0 14 11" fill="none" xmlns="http://www.w3.org/2000/svg">
<path d="M1.4319 4.84839C4.93065 3.32439 7.26316 2.31958 8.4294 1.83414C11.7632 0.447952 12.455 0.207202 12.9069 0.199046C13.0063 0.197452 13.2275 0.222014 13.3719 0.338733C13.4919 0.43717 13.5257 0.570296 13.5425 0.663765C13.5575 0.75714 13.5782 0.969952 13.5613 1.13608C13.3813 3.03358 12.5994 7.6382 12.2019 9.76351C12.035 10.6628 11.7032 10.9643 11.3825 10.9937C10.685 11.0578 10.1563 10.5332 9.48128 10.0909C8.42566 9.39845 7.8294 8.96758 6.80378 8.29201C5.61878 7.51126 6.38753 7.08208 7.06253 6.38083C7.23878 6.19726 10.31 3.40445 10.3682 3.15114C10.3757 3.11945 10.3832 3.00133 10.3119 2.93908C10.2425 2.87664 10.1394 2.89801 10.0644 2.91489C9.95753 2.93889 8.2719 4.05414 5.0019 6.26045C4.52378 6.58933 4.09065 6.74964 3.70065 6.7412C3.27315 6.73201 2.44815 6.49895 1.83503 6.29983C1.08503 6.05551 0.486905 5.92633 0.539405 5.51139C0.565655 5.29539 0.86378 5.07433 1.4319 4.84839Z" fill="white"/>
</svg>
