<svg width="24" height="24" viewBox="0 0 24 24" fill="none" xmlns="http://www.w3.org/2000/svg">
<g clip-path="url(#clip0_8_42)">
<path d="M20.8125 2.33907C20.2172 1.79063 17.8078 0.0421899 12.436 0.0187524C12.436 0.0187524 6.10315 -0.360935 3.01877 2.47031C1.30315 4.18594 0.69846 6.70313 0.632835 9.82032C0.56721 12.9375 0.487523 18.7781 6.11721 20.3625H6.1219L6.11721 22.7813C6.11721 22.7813 6.07971 23.7609 6.72659 23.9578C7.50471 24.2016 7.96409 23.4563 8.7094 22.6547C9.11721 22.2141 9.67971 21.5672 10.1063 21.075C13.9594 21.3984 16.9172 20.6578 17.2547 20.55C18.0328 20.2969 22.4344 19.7344 23.1469 13.8938C23.8875 7.86563 22.7906 4.05938 20.8125 2.33907ZM21.4641 13.4531C20.8594 18.3281 17.2922 18.6375 16.636 18.8484C16.3547 18.9375 13.7531 19.5844 10.486 19.3734C10.486 19.3734 8.04846 22.3125 7.28909 23.0766C7.04065 23.325 6.76877 23.3016 6.77346 22.8094C6.77346 22.4859 6.79221 18.7922 6.79221 18.7922C6.78752 18.7922 6.78752 18.7922 6.79221 18.7922C2.02033 17.4703 2.30159 12.4969 2.35315 9.89532C2.40471 7.29375 2.8969 5.16094 4.35002 3.72656C6.96096 1.35938 12.3375 1.71094 12.3375 1.71094C16.8797 1.72969 19.0547 3.09844 19.561 3.55781C21.2344 4.99219 22.0875 8.42344 21.4641 13.4531ZM14.9485 9.66563C14.9672 10.0688 14.3625 10.0969 14.3438 9.69375C14.2922 8.6625 13.8094 8.16094 12.8156 8.10469C12.4125 8.08125 12.45 7.47657 12.8485 7.5C14.1563 7.57032 14.8828 8.32032 14.9485 9.66563ZM15.9 10.1953C15.9469 8.20782 14.7047 6.65157 12.3469 6.47813C11.9485 6.45 11.9906 5.84531 12.3891 5.87344C15.1078 6.07031 16.5563 7.94063 16.5047 10.2094C16.5 10.6125 15.8906 10.5938 15.9 10.1953ZM18.1031 10.8234C18.1078 11.2266 17.4985 11.2313 17.4985 10.8281C17.4703 7.00782 14.925 4.92656 11.836 4.90313C11.4375 4.89844 11.4375 4.29844 11.836 4.29844C15.2906 4.32188 18.0703 6.70781 18.1031 10.8234ZM17.5735 15.4219V15.4313C17.0672 16.3219 16.1203 17.3063 15.1453 16.9922L15.136 16.9781C14.1469 16.7016 11.8172 15.5016 10.3453 14.3297C9.58596 13.7297 8.89221 13.0219 8.35784 12.3422C7.87502 11.7375 7.38752 11.0203 6.91409 10.1578C5.91565 8.35313 5.69534 7.54688 5.69534 7.54688C5.38127 6.57188 6.36096 5.625 7.25627 5.11875H7.26565C7.6969 4.89375 8.1094 4.96875 8.38596 5.30156C8.38596 5.30156 8.96721 5.99532 9.21565 6.3375C9.45002 6.65625 9.76409 7.16719 9.92815 7.45313C10.2141 7.96407 10.036 8.48438 9.75471 8.7L9.19221 9.15C8.90627 9.37969 8.94377 9.80625 8.94377 9.80625C8.94377 9.80625 9.77815 12.9609 12.8953 13.7578C12.8953 13.7578 13.3219 13.7953 13.5516 13.5094L14.0016 12.9469C14.2172 12.6656 14.7375 12.4875 15.2485 12.7734C15.9375 13.1625 16.8141 13.7672 17.3953 14.3156C17.7235 14.5828 17.7985 14.9906 17.5735 15.4219Z" fill="#9747FF"/>
</g>
<defs>
<clipPath id="clip0_8_42">
<rect width="24" height="24" fill="white"/>
</clipPath>
</defs>
</svg>
